Coordinates
version=1
nRows=14
nColumns=40
inDegrees=yes

Units are S.I. units (second, meters, Newtons, ...)
If the header above contains a line with 'inDegrees', this indicates whether rotational values are in degrees (yes) or radians (no).

endheader
time	pelvis_tilt	pelvis_list	pelvis_rotation	pelvis_tx	pelvis_ty	pelvis_tz	hip_flexion_r	hip_adduction_r	hip_rotation_r	knee_angle_r	knee_angle_r_beta	ankle_angle_r	subtalar_angle_r	mtp_angle_r	hip_flexion_l	hip_adduction_l	hip_rotation_l	knee_angle_l	knee_angle_l_beta	ankle_angle_l	subtalar_angle_l	mtp_angle_l	lumbar_extension	lumbar_bending	lumbar_rotation	arm_flex_r	arm_add_r	arm_rot_r	elbow_flex_r	pro_sup_r	wrist_flex_r	wrist_dev_r	arm_flex_l	arm_add_l	arm_rot_l	elbow_flex_l	pro_sup_l	wrist_flex_l	wrist_dev_l
      1.67000000	     -4.59451248	    -11.36722099	     89.93616533	      0.18410169	      0.94733337	      0.24358387	     39.89732047	     -2.60967843	     -1.98767051	      0.11856910	      0.00206942	      0.27870804	      0.00000000	     -0.00000000	     -8.73366376	      7.31153926	      5.91686529	      3.57412500	      0.06238025	     14.69003902	     -0.00000000	     -0.00000000	      3.98666262	     -5.80500837	     -5.09134907	      0.00000000	     -0.00000000	     -0.00000000	      0.00000000	      0.00000000	      0.00000000	      0.00000000	      0.00000000	     -0.00000000	     -0.00000000	      0.00000000	      0.00000000	     -0.00000000	      0.00000000
      1.68000000	     -4.48976497	    -11.61194351	     89.93836732	      0.18490044	      0.94532937	      0.23045707	     40.20255815	     -2.42091227	     -1.91440577	      0.77195866	      0.01347322	      0.16701535	      0.00000000	      0.00000000	     -9.19564025	      7.12224221	      5.99730099	      3.77489463	      0.06588434	     14.52775501	      0.00000000	      0.00000000	      4.26463283	     -5.61176121	     -5.10210113	     -0.00000000	     -0.00000000	     -0.00000000	      0.00000000	      0.00000000	      0.00000000	      0.00000000	      0.00000000	     -0.00000000	      0.00000000	      0.00000000	      0.00000000	      0.00000000	     -0.00000000
      1.69000000	     -4.34053735	    -11.85172568	     89.94021789	      0.18579289	      0.94350464	      0.21712532	     40.50804242	     -2.19166689	     -1.98031961	      1.64939198	      0.02878732	     -0.10613634	      0.00000000	      0.00000000	     -9.60679385	      6.88509940	      6.03690644	      4.07033822	      0.07104080	     14.19260999	      0.00000000	      0.00000000	      4.54867767	     -5.38423550	     -5.04825402	      0.00000000	      0.00000000	      0.00000000	      0.00000000	      0.00000000	      0.00000000	      0.00000000	      0.00000000	      0.00000000	      0.00000000	      0.00000000	      0.00000000	      0.00000000	      0.00000000
      1.70000000	     -4.15427196	    -12.08007360	     89.94164969	      0.18672057	      0.94190866	      0.20363602	     40.73081448	     -1.92009959	     -1.89455326	      2.56140319	      0.04470492	     -0.53244266	     -0.00000000	     -0.00000000	     -9.91882890	      6.61976556	      6.00437743	      4.56499426	      0.07967418	     13.77480451	      0.00000000	     -0.00000000	      4.82437025	     -5.11262737	     -5.00023561	      0.00000000	     -0.00000000	     -0.00000000	      0.00000000	      0.00000000	      0.00000000	     -0.00000000	      0.00000000	     -0.00000000	     -0.00000000	      0.00000000	      0.00000000	     -0.00000000	      0.00000000
      1.71000000	     -3.86400878	    -12.34273534	     89.94301551	      0.18771455	      0.94051381	      0.18990365	     40.98177518	     -1.56319026	     -2.31932836	      3.58110932	      0.06250215	     -1.35006260	      0.00000000	      0.00000000	    -10.15861312	      6.25078124	      5.86523265	      5.08879526	      0.08881623	     13.13757578	      0.00000000	      0.00000000	      5.17011688	     -4.72068553	     -4.95674049	      0.00000000	      0.00000000	      0.00000000	      0.00000000	      0.00000000	      0.00000000	      0.00000000	      0.00000000	      0.00000000	      0.00000000	      0.00000000	      0.00000000	      0.00000000	      0.00000000
      1.72000000	     -3.58227844	    -12.54831669	     89.94393332	      0.18872685	      0.93945994	      0.17611978	     41.10092314	     -1.19753023	     -2.22730586	      4.57389682	      0.07982956	     -2.00245205	     -0.00000000	      0.00000000	    -10.31601096	      5.91207886	      5.83168346	      5.86014153	      0.10227876	     12.52779216	      0.00000000	     -0.00000000	      5.42334969	     -4.33262483	     -4.91224956	     -0.00000000	     -0.00000000	     -0.00000000	      0.00000000	      0.00000000	      0.00000000	     -0.00000000	     -0.00000000	     -0.00000000	      0.00000000	      0.00000000	      0.00000000	      0.00000000	     -0.00000000
      1.73000000	     -3.11472826	    -12.80058957	     89.94429600	      0.18982439	      0.93866182	      0.16206953	     41.22948076	     -0.69525799	     -2.94282854	      5.54903767	      0.09684898	     -3.46463244	      0.00000000	      0.00000000	    -10.32634683	      5.36458411	      5.31744599	      6.73606558	      0.11756652	     11.49591939	      0.00000000	      0.00000000	      5.79021684	     -3.74054144	     -4.86370415	      0.00000000	      0.00000000	      0.00000000	      0.00000000	      0.00000000	      0.00000000	      0.00000000	      0.00000000	      0.00000000	      0.00000000	      0.00000000	      0.00000000	      0.00000000	      0.00000000
      1.74000000	     -2.62151253	    -12.98627466	     89.94443117	      0.19096727	      0.93828241	      0.14796623	     41.24979465	     -0.15792247	     -3.32031459	      6.53143100	      0.11399498	     -4.74147493	      0.00000000	      0.00000000	    -10.26352297	      4.81196306	      4.89013981	      7.83488786	      0.13674459	     10.40509780	      0.00000000	      0.00000000	      6.05433669	     -3.11174662	     -4.81442184	      0.00000000	      0.00000000	      0.00000000	      0.00000000	      0.00000000	      0.00000000	      0.00000000	      0.00000000	      0.00000000	      0.00000000	      0.00000000	      0.00000000	      0.00000000	      0.00000000
      1.75000000	     -2.06230016	    -13.13656171	     89.94405896	      0.19213918	      0.93826023	      0.13379199	     41.20693140	      0.42714511	     -3.72600907	      7.50390436	      0.13096784	     -6.04556711	      0.00000000	      0.00000000	    -10.08559350	      4.19091446	      4.37497118	      9.15184727	      0.15972987	      9.10234590	      0.00000000	      0.00000000	      6.28114232	     -2.40996654	     -4.75715810	      0.00000000	      0.00000000	      0.00000000	      0.00000000	      0.00000000	      0.00000000	      0.00000000	      0.00000000	      0.00000000	      0.00000000	      0.00000000	      0.00000000	      0.00000000	      0.00000000
      1.76000000	     -1.42830075	    -13.22387491	     89.94336608	      0.19334162	      0.93865076	      0.11956227	     41.07160923	      1.07200149	     -4.11945992	      8.46736125	      0.14778333	     -7.31515761	      0.00000000	      0.00000000	     -9.81329374	      3.48893074	      3.76529397	     10.69327970	      0.18663294	      7.57272881	      0.00000000	      0.00000000	      6.46297059	     -1.60533322	     -4.65950341	      0.00000000	      0.00000000	      0.00000000	      0.00000000	      0.00000000	      0.00000000	      0.00000000	      0.00000000	      0.00000000	      0.00000000	      0.00000000	      0.00000000	      0.00000000	      0.00000000
      1.77000000	     -0.74562365	    -13.25048996	     89.94227104	      0.19459277	      0.93940980	      0.10532129	     40.86470326	      1.75202066	     -4.49245059	      9.45220091	      0.16497203	     -8.43253920	      0.00000000	      0.00000000	     -9.43431037	      2.72576726	      3.10703581	     12.47480837	      0.21772648	      5.80765076	      0.00000000	      0.00000000	      6.54895080	     -0.76967211	     -4.59717233	      0.00000000	      0.00000000	      0.00000000	      0.00000000	      0.00000000	      0.00000000	      0.00000000	      0.00000000	      0.00000000	      0.00000000	      0.00000000	      0.00000000	      0.00000000	      0.00000000
      1.78000000	     -0.00601729	    -13.19699952	     89.94068060	      0.19588209	      0.94055005	      0.09108053	     40.55340595	      2.48334849	     -4.78563647	     10.43585530	      0.18214004	     -9.35414703	      0.00000000	      0.00000000	     -8.96761995	      1.88309602	      2.40005677	     14.49267234	      0.25294485	      3.81656203	      0.00000000	      0.00000000	      6.54067620	      0.12449996	     -4.50664393	      0.00000000	      0.00000000	      0.00000000	      0.00000000	      0.00000000	      0.00000000	      0.00000000	      0.00000000	      0.00000000	      0.00000000	      0.00000000	      0.00000000	      0.00000000	      0.00000000
      1.79000000	      0.72721785	    -13.06175235	     89.93862163	      0.19717732	      0.94200717	      0.07693429	     40.15995584	      3.20091963	     -5.01940987	     11.45612451	      0.19994709	     -9.99007759	      0.00000000	      0.00000000	     -8.40289978	      1.02558775	      1.70307928	     16.76697949	      0.29263900	      1.61407475	      0.00000000	      0.00000000	      6.42264985	      1.00210457	     -4.41474659	      0.00000000	      0.00000000	      0.00000000	      0.00000000	      0.00000000	      0.00000000	      0.00000000	      0.00000000	      0.00000000	      0.00000000	      0.00000000	      0.00000000	      0.00000000	      0.00000000
      1.80000000	      1.49150711	    -12.85232517	     89.93650457	      0.19854457	      0.94376847	      0.06286466	     39.66065050	      3.95580514	     -5.20753181	     12.44940935	      0.21728318	    -10.35907098	      0.00000000	      0.00000000	     -7.74991690	      0.10532226	      1.04688920	     19.25690988	      0.33609648	     -0.77932401	      0.00000000	      0.00000000	      6.21728763	      1.89962995	     -4.33478358	      0.00000000	      0.00000000	      0.00000000	      0.00000000	      0.00000000	      0.00000000	      0.00000000	      0.00000000	      0.00000000	      0.00000000	      0.00000000	      0.00000000	      0.00000000	      0.00000000
